<?xml version="1.0" encoding="iso-8859-1"?>
<!-- Generator: Adobe Illustrator 19.0.0, SVG Export Plug-In . SVG Version: 6.00 Build 0)  -->
<svg xmlns="http://www.w3.org/2000/svg" xmlns:xlink="http://www.w3.org/1999/xlink" version="1.1" id="Layer_1" x="0px" y="0px" viewBox="0 0 511.999 511.999" style="enable-background:new 0 0 511.999 511.999;" xml:space="preserve" width="512px" height="512px">
<g>
	<g>
		<path d="M510.664,154.442c-43.738-63.737-94.907-97.36-97.525-99.056c-0.007-0.005-0.014-0.009-0.022-0.014    c-0.005-0.003-0.014-0.009-0.019-0.012c-0.272-0.175-0.553-0.325-0.837-0.462c-0.032-0.015-0.06-0.036-0.092-0.052l-70.078-32.475    c-1.002-0.464-2.092-0.705-3.196-0.705H173.098c-1.104,0-2.195,0.24-3.197,0.705L99.822,54.846    c-0.026,0.012-0.05,0.029-0.075,0.042c-0.292,0.139-0.58,0.291-0.858,0.471c-2.169,1.401-53.623,35.045-97.556,99.083    c-1.549,2.259-1.764,5.175-0.563,7.637L56.564,276.37c1.026,2.102,2.961,3.613,5.248,4.101c0.526,0.112,1.056,0.167,1.585,0.167    c1.767,0,3.499-0.616,4.879-1.772l27.14-22.709v192.455c0,2.948,1.704,5.631,4.374,6.884c6.138,2.88,12.44,5.627,18.729,8.163    c0.932,0.376,1.895,0.553,2.841,0.553c3.01,0,5.86-1.799,7.054-4.762c1.57-3.895-0.314-8.325-4.208-9.896    c-4.546-1.833-9.098-3.78-13.582-5.81V66.602l45.216-20.954l17.039,25.935c0.04,0.06,0.079,0.119,0.121,0.177    c15.331,21.96,35.654,40.683,58.773,54.143l16.312,9.506l0.302,339.625c-36.043-0.753-71.562-7.006-105.92-18.697    c-3.977-1.353-8.296,0.772-9.647,4.749c-1.352,3.975,0.773,8.295,4.749,9.647c38.29,13.029,77.961,19.6,118.202,19.6    c6.729,0,13.474-0.183,20.231-0.552c47.398-2.581,93.223-14.116,136.203-34.285c2.669-1.252,4.372-3.935,4.372-6.884V256.158    l8.129,6.799c0.077,0.066,19.02,15.909,19.02,15.909c1.381,1.155,3.111,1.771,4.879,1.771c0.528,0,1.059-0.055,1.585-0.167    c2.287-0.487,4.222-1.999,5.248-4.101l55.793-114.291C512.429,159.619,512.215,156.701,510.664,154.442z M65.968,260.97    L16.393,159.419c1.924-2.733,3.864-5.407,5.812-8.022l50.667,103.795L65.968,260.97z M95.415,236.329l-10.528,8.81l-52.271-107.08    c24.438-29.921,48.872-50.672,62.799-61.412V236.329z M239.426,112.764c-21.194-12.34-39.831-29.498-53.898-49.621l-15.74-23.958    l4.987-2.311h7.076L195.7,56.599c13.212,18.817,30.731,34.819,50.664,46.277l1.69,0.971l0.012,13.954L239.426,112.764z     M255.628,90.66l-1.687-0.969c-18.018-10.357-33.855-24.821-45.796-41.83l-7.714-10.987h110.488l-7.344,10.518    c-11.808,16.913-27.469,31.34-45.292,41.723L255.628,90.66z M263.262,103.814l2.677-1.559    c19.717-11.486,37.044-27.447,50.107-46.157l13.422-19.223h7.75l4.6,2.13l-15.859,24.137    c-14.067,20.123-32.703,37.28-53.899,49.623l-8.786,5.121L263.262,103.814z M416.574,236.33v-67.62    c0.001-4.199-3.403-7.603-7.602-7.603c-4.2,0-7.603,3.404-7.603,7.603v275.036c-39.933,18.089-82.362,28.463-126.196,30.851    c-3.866,0.211-7.724,0.335-11.581,0.42l-0.302-339.54l16.424-9.571c23.122-13.462,43.445-32.186,58.776-54.145    c0.042-0.059,0.081-0.118,0.121-0.177l17.157-26.113l45.6,21.131v76.763c0,4.199,3.403,7.603,7.603,7.603s7.603-3.404,7.603-7.603    v-66.73c13.919,10.72,38.336,31.446,62.805,61.418l-52.281,107.082L416.574,236.33z M446.03,260.972l-6.916-5.786l50.675-103.793    c1.95,2.617,3.89,5.292,5.815,8.027L446.03,260.972z" fill="#9655e0"/>
	</g>
</g>
<g>
	<g>
		<path d="M297.659,159.924c-1.261-2.979-4.338-4.919-7.583-4.67c-3.172,0.243-5.913,2.493-6.764,5.557    c-0.795,2.861,0.196,6.022,2.5,7.9c2.616,2.132,6.439,2.286,9.202,0.34C297.926,167,298.941,163.206,297.659,159.924z" fill="#9655e0"/>
	</g>
</g>
<g>
	<g>
		<path d="M294.861,219.88c-5.752-3.788-13.409,1.688-11.549,8.349c0.872,3.123,3.704,5.404,6.95,5.562    c3.377,0.164,6.532-1.992,7.586-5.207C298.895,225.392,297.683,221.738,294.861,219.88z" fill="#9655e0"/>
	</g>
</g>
<g>
	<g>
		<path d="M297.659,413.372c-1.215-2.869-4.087-4.758-7.21-4.682c-3.049,0.074-5.8,2.02-6.899,4.857    c-1.116,2.884-0.334,6.296,1.978,8.37c2.426,2.178,6.014,2.568,8.852,0.979C297.73,421.022,299.035,416.895,297.659,413.372z" fill="#9655e0"/>
	</g>
</g>
<g>
	<g>
		<path d="M297.659,350.01c-1.262-2.979-4.336-4.919-7.583-4.669c-3.174,0.243-5.912,2.492-6.764,5.557    c-0.795,2.861,0.197,6.024,2.5,7.905c2.62,2.139,6.434,2.277,9.202,0.338C297.93,357.097,298.937,353.284,297.659,350.01z" fill="#9655e0"/>
	</g>
</g>
<g>
	<g>
		<path d="M297.659,286.648c-1.262-2.979-4.336-4.919-7.583-4.669c-3.174,0.243-5.912,2.492-6.764,5.557    c-0.795,2.861,0.197,6.024,2.5,7.905c2.62,2.139,6.434,2.277,9.202,0.338C297.93,293.735,298.937,289.922,297.659,286.648z" fill="#9655e0"/>
	</g>
</g>
<g>
</g>
<g>
</g>
<g>
</g>
<g>
</g>
<g>
</g>
<g>
</g>
<g>
</g>
<g>
</g>
<g>
</g>
<g>
</g>
<g>
</g>
<g>
</g>
<g>
</g>
<g>
</g>
<g>
</g>
</svg>
